<svg width="256" height="256" viewBox="0 0 256 256" fill="none" xmlns="http://www.w3.org/2000/svg">
<path d="M97.692 214.566C94.5718 216.476 90.9064 217.578 86.9883 217.578C75.648 217.578 66.4219 208.352 66.4219 197.012C66.4219 193.645 67.2555 190.301 68.8327 187.343L69.404 186.272L75.8577 174.173L87.3668 152.596C88.4909 150.489 87.9512 147.896 86.2059 146.265C73.5191 134.412 66.4219 117.734 66.4219 100.578C66.4219 66.3049 94.1001 38.4219 128.121 38.4219C162.142 38.4219 189.82 66.3049 189.82 100.578C189.82 134.851 162.142 162.734 128.121 162.734C123.463 162.734 118.839 162.204 114.338 161.173C110.975 160.403 107.555 162.823 107.555 166.272V197.012C107.555 199.088 107.243 201.092 106.668 202.982M97.692 214.566C99.5972 217.917 101.246 221.412 102.619 225.01C103.803 228.111 101.406 231.289 98.0871 231.289H78.1879C76.8619 231.289 75.5901 230.762 74.6524 229.825L54.1754 209.348C53.2377 208.41 52.7109 207.138 52.7109 205.812V165.126V50.1879C52.7109 48.8619 53.2377 47.5901 54.1754 46.6524L74.6524 26.1754C75.5901 25.2377 76.8619 24.7109 78.1879 24.7109H178.054C179.38 24.7109 180.652 25.2377 181.59 26.1754L202.067 46.6524C203.004 47.5901 203.531 48.8619 203.531 50.188V205.812C203.531 207.138 203.004 208.41 202.067 209.348L181.59 229.825C180.652 230.762 179.38 231.289 178.054 231.289H122.819C120.503 231.289 118.504 229.694 117.869 227.466C115.4 218.812 111.61 210.517 106.668 202.982M97.692 214.566L106.668 202.982" stroke="url(#paint0_linear)" stroke-width="16"/>
<path d="M154 102C154 116.336 142.336 128 128 128C113.664 128 102 116.336 102 102C102 87.6636 113.664 76 128 76C142.336 76 154 87.6636 154 102Z" stroke="url(#paint1_linear)" stroke-width="8"/>
<rect x="137" y="186" width="17" height="24" rx="8.5" fill="url(#paint2_linear)"/>
<rect x="160" y="186" width="17" height="24" rx="8.5" fill="url(#paint3_linear)"/>
<defs>
<linearGradient id="paint0_linear" x1="128.121" y1="231.289" x2="128.121" y2="24.7109" gradientUnits="userSpaceOnUse">
<stop stop-color="#5558FF"/>
<stop offset="1" stop-color="#00C0FF"/>
</linearGradient>
<linearGradient id="paint1_linear" x1="128" y1="128" x2="128" y2="76" gradientUnits="userSpaceOnUse">
<stop stop-color="#5558FF"/>
<stop offset="1" stop-color="#00C0FF"/>
</linearGradient>
<linearGradient id="paint2_linear" x1="145.5" y1="210" x2="145.5" y2="186" gradientUnits="userSpaceOnUse">
<stop stop-color="#FD5900"/>
<stop offset="1" stop-color="#FFDE00"/>
</linearGradient>
<linearGradient id="paint3_linear" x1="168.5" y1="210" x2="168.5" y2="186" gradientUnits="userSpaceOnUse">
<stop stop-color="#FD5900"/>
<stop offset="1" stop-color="#FFDE00"/>
</linearGradient>
</defs>
</svg>
